<?xml version="1.0" encoding="utf-8"?>
<!-- Generator: Adobe Illustrator 17.1.0, SVG Export Plug-In . SVG Version: 6.00 Build 0)  -->
<!DOCTYPE svg PUBLIC "-//W3C//DTD SVG 1.1//EN" "http://www.w3.org/Graphics/SVG/1.1/DTD/svg11.dtd">
<svg version="1.1" id="Calque_2" xmlns="http://www.w3.org/2000/svg" xmlns:xlink="http://www.w3.org/1999/xlink" x="0px" y="0px"
	 viewBox="0 0 350 318.9" enable-background="new 0 0 350 318.9" xml:space="preserve">
<path stroke="#000000" d="M252.5,151.1l0-1l91.8-96v-7L242.5,0.6l0,0l-4,6.5l97,45l-93,97v5.1l98,46l-108,106v-1V4.5l-7.4-3.8
	L117.5,112.6v-0.4v-0.4V0.6h-8.1l0,121.4L0.4,235.2v5.8l109.9,77.1l7.2-4.8v-1.2v-188l106-110.1l0.9,1l0.1,298.9l0,0l6.8,4.1
	l118.2-115.9v-7L252.5,151.1z M109.4,307.2L9.5,238v-0.9L109.4,133L109.4,307.2z"/>
</svg>
